<svg width="8" height="5" viewBox="0 0 8 5" fill="none" xmlns="http://www.w3.org/2000/svg">
<rect width="8" height="5" fill="#1E1E1E"/>
<g id="Furniking web design" clip-path="url(#clip0_0_1)">
<rect width="1440" height="6431" transform="translate(-899 -94)" fill="white"/>
<g id="Hero section">
<g id="Search">
<rect id="Rectangle 20" x="-496" y="-20" width="580" height="44" rx="7" stroke="#7AC751" stroke-width="2"/>
<g id="Icon">
<path id="Vector" d="M0.694365 0.2119C0.811432 0.0948333 1.0012 0.09473 1.1184 0.211669L3.64328 2.73105C3.76038 2.8479 3.94997 2.8479 4.06708 2.73105L6.59195 0.21167C6.70915 0.0947304 6.89892 0.0948339 7.01599 0.211901L7.49783 0.693743C7.61499 0.8109 7.61499 1.00085 7.49783 1.11801L4.06731 4.54853C3.95015 4.66568 3.7602 4.66568 3.64304 4.54853L0.212523 1.11801C0.0953658 1.00085 0.0953659 0.810899 0.212523 0.693742L0.694365 0.2119Z" fill="#555555"/>
</g>
</g>
</g>
</g>
<defs>
<clipPath id="clip0_0_1">
<rect width="1440" height="6431" fill="white" transform="translate(-899 -94)"/>
</clipPath>
</defs>
</svg>
