<svg width="60" height="55" viewBox="0 0 60 55" fill="none" xmlns="http://www.w3.org/2000/svg">
<g clip-path="url(#clip0_1_112)">
<path d="M43.6989 44.7858H16.5685C14.5515 44.7858 12.9163 43.1442 12.9163 41.1191V21.6072L30.1337 10.2144L47.3511 21.6072V41.1191C47.3511 43.1442 45.716 44.7858 43.6989 44.7858Z" stroke="white" stroke-width="30" stroke-linecap="round" stroke-linejoin="round"/>
<path d="M29.3852 38.31C26.9157 38.31 24.6134 37.0831 23.2266 35.0284C22.8629 34.4896 23.0031 33.7568 23.5399 33.3917C24.0768 33.0262 24.8067 33.1673 25.1703 33.7061C26.1198 35.1129 27.6954 35.9528 29.3852 35.9528C31.075 35.9528 32.6506 35.1129 33.6001 33.7061C33.9637 33.1675 34.6938 33.0263 35.2305 33.3917C35.7672 33.7568 35.9075 34.4896 35.5438 35.0284C34.157 37.0831 31.8547 38.31 29.3852 38.31Z" fill="#7837F3"/>
<path d="M29.3852 38.31C26.9157 38.31 24.6134 37.0831 23.2266 35.0284C22.8629 34.4896 23.0031 33.7568 23.5399 33.3917C24.0768 33.0262 24.8067 33.1673 25.1703 33.7061C26.1198 35.1129 27.6954 35.9528 29.3852 35.9528C31.075 35.9528 32.6506 35.1129 33.6001 33.7061C33.9637 33.1675 34.6938 33.0263 35.2305 33.3917C35.7672 33.7568 35.9075 34.4896 35.5438 35.0284C34.157 37.0831 31.8547 38.31 29.3852 38.31Z" fill="#7837F3"/>
<path d="M36.781 28.1896C37.725 28.1896 38.4902 27.4213 38.4902 26.4736C38.4902 25.5258 37.725 24.7573 36.781 24.7573C35.837 24.7573 35.0718 25.5258 35.0718 26.4736C35.0718 27.4213 35.837 28.1896 36.781 28.1896Z" fill="#7837F3"/>
<path d="M23.7222 26.4736C23.7222 27.4213 22.957 28.1896 22.013 28.1896C21.0691 28.1896 20.3038 27.4213 20.3038 26.4736C20.3038 25.5258 21.0691 24.7573 22.013 24.7573C22.957 24.7573 23.7222 25.5258 23.7222 26.4736Z" fill="#7837F3"/>
<path d="M36.6495 25.5813C36.1587 25.5813 35.7607 25.9808 35.7607 26.4736C35.7607 26.9665 36.1587 27.3659 36.6495 27.3659H36.9123C37.4033 27.3659 37.8012 26.9665 37.8012 26.4736C37.8012 25.9808 37.4033 25.5813 36.9123 25.5813H36.6495Z" fill="#7837F3"/>
<path d="M36.6495 25.5813C36.1587 25.5813 35.7607 25.9808 35.7607 26.4736C35.7607 26.9665 36.1587 27.3659 36.6495 27.3659H36.9123C37.4033 27.3659 37.8012 26.9665 37.8012 26.4736C37.8012 25.9808 37.4033 25.5813 36.9123 25.5813H36.6495Z" fill="#7837F3"/>
<path d="M21.8816 25.5813C21.3907 25.5813 20.9928 25.9808 20.9928 26.4736C20.9928 26.9665 21.3907 27.3659 21.8816 27.3659H22.1444C22.6353 27.3659 23.0333 26.9665 23.0333 26.4736C23.0333 25.9808 22.6353 25.5813 22.1444 25.5813H21.8816Z" fill="#7837F3"/>
<path d="M21.8816 25.5813C21.3907 25.5813 20.9928 25.9808 20.9928 26.4736C20.9928 26.9665 21.3907 27.3659 21.8816 27.3659H22.1444C22.6353 27.3659 23.0333 26.9665 23.0333 26.4736C23.0333 25.9808 22.6353 25.5813 22.1444 25.5813H21.8816Z" fill="#7837F3"/>
</g>
<defs>
<clipPath id="clip0_1_112">
<rect width="60" height="55" fill="white"/>
</clipPath>
</defs>
</svg>
